# Blender v2.77 (sub 0) OBJ File: ''
# www.blender.org
mtllib Bone.mtl
o Mesh_0000
v -0.000000 0.008787 0.025042
v 0.006562 0.005057 0.023120
v 0.005066 0.010030 0.022747
v 0.009690 -0.005051 0.020124
v 0.008118 0.000000 0.019391
v 0.005751 0.000000 0.022207
v 0.009690 0.005051 0.019869
v 0.010077 0.004021 0.016307
v 0.006769 0.011359 0.019816
v -0.000000 0.012167 0.023791
v -0.005066 0.010030 0.022747
v -0.006562 0.005057 0.023120
v -0.000000 0.004037 0.024944
v -0.005751 -0.000000 0.022207
v -0.000000 -0.004037 0.024944
v -0.000000 0.000000 0.021861
v -0.009690 0.005051 0.019869
v -0.006769 0.011359 0.019816
v -0.000000 0.014004 0.019608
v 0.007273 0.011067 0.016382
v 0.009043 0.003434 0.013651
v -0.007273 0.011067 0.016382
v -0.010077 0.004021 0.016307
v -0.008118 -0.000000 0.019391
v -0.009690 -0.005051 0.020124
v -0.006562 -0.005057 0.023120
v -0.005066 -0.010030 0.022747
v 0.000000 -0.008787 0.025042
v 0.000000 -0.012167 0.023791
v 0.005066 -0.010030 0.022747
v 0.006769 -0.011359 0.019816
v 0.010077 -0.004021 0.016307
v -0.009043 0.003434 0.013651
v -0.009090 -0.000000 0.015748
v -0.010077 -0.004021 0.016307
v -0.006769 -0.011359 0.019816
v 0.000000 -0.014004 0.019608
v 0.007273 -0.010811 0.016638
v 0.000000 -0.013110 0.014948
v -0.007273 -0.010811 0.016638
v -0.006793 -0.007572 0.012704
v -0.009043 -0.003434 0.013651
v -0.008793 -0.000616 0.013059
v -0.004724 0.003222 0.009623
v -0.006793 0.007572 0.012704
v -0.004724 -0.003222 0.009623
v -0.005651 -0.000000 0.009127
v -0.002848 0.002899 0.005530
v -0.000000 0.006575 0.008670
v -0.000000 0.005020 0.005432
v 0.003155 0.002899 0.005530
v 0.003155 0.002862 0.000000
v 0.004686 0.000000 0.005530
v 0.004047 0.000000 0.000000
v 0.003155 -0.002862 0.000000
v 0.004686 0.000000 -0.005530
v -0.000000 0.013365 0.014692
v -0.000000 0.009624 0.011453
v 0.004724 0.003222 0.009623
v 0.005651 0.000000 0.009127
v 0.003155 -0.002899 0.005530
v 0.000000 -0.005020 0.005432
v 0.000000 -0.004767 0.000000
v -0.002402 -0.002862 -0.000000
v 0.000000 -0.005020 -0.005432
v 0.006793 0.007572 0.012704
v 0.008336 0.000134 0.013443
v 0.004724 -0.003222 0.009623
v 0.000000 -0.006575 0.008670
v -0.002848 -0.002899 0.005530
v -0.004686 -0.000000 0.005530
v 0.009090 0.000000 0.015748
v 0.009043 -0.003434 0.013651
v 0.006793 -0.007572 0.012704
v 0.000000 -0.009624 0.011453
v -0.002402 0.002862 -0.000000
v -0.000000 0.004767 -0.000000
v -0.000000 0.005020 -0.005432
v -0.002848 0.002899 -0.005530
v -0.004686 -0.000000 -0.005530
v -0.005651 -0.000000 -0.009127
v -0.002848 -0.002899 -0.005530
v -0.004724 -0.003222 -0.009623
v 0.000000 -0.006575 -0.008670
v 0.000000 -0.009624 -0.011453
v -0.004047 -0.000000 -0.000000
v 0.003155 -0.002899 -0.005530
v 0.004724 -0.003222 -0.009623
v 0.005651 0.000000 -0.009127
v 0.008071 0.000000 -0.013936
v 0.004724 0.003222 -0.009623
v 0.009043 0.003434 -0.013651
v 0.003155 0.002899 -0.005530
v -0.000000 0.006575 -0.008670
v -0.000000 0.009624 -0.011453
v -0.004724 0.003222 -0.009623
v -0.006793 0.007572 -0.012704
v -0.009043 0.003434 -0.013651
v -0.007775 -0.000000 -0.013936
v -0.009090 -0.000000 -0.015748
v -0.010077 0.004021 -0.016307
v -0.009043 -0.003434 -0.013651
v -0.010077 -0.004021 -0.016307
v -0.008118 -0.000000 -0.019391
v -0.009690 -0.005051 -0.020124
v -0.005751 -0.000000 -0.022156
v -0.009690 0.005051 -0.020124
v -0.006562 0.005057 -0.023120
v 0.000000 0.004037 -0.024944
v -0.000000 0.008787 -0.025042
v 0.006562 0.005057 -0.023120
v 0.005066 0.010030 -0.022747
v 0.009690 0.005051 -0.020124
v 0.006769 0.011359 -0.019816
v 0.010077 0.004021 -0.016307
v 0.007273 0.010555 -0.015999
v 0.006793 0.007572 -0.012704
v -0.000000 0.012167 -0.023791
v -0.005066 0.010030 -0.022747
v -0.006769 0.011359 -0.019816
v -0.007273 0.010555 -0.015999
v -0.000000 0.012854 -0.014308
v -0.000000 0.014004 -0.019608
v 0.006769 -0.011359 -0.019816
v 0.000000 -0.012167 -0.023791
v 0.005066 -0.010030 -0.022747
v 0.000000 -0.008787 -0.025042
v -0.005066 -0.010030 -0.022747
v -0.006562 -0.005057 -0.023120
v 0.000000 -0.014004 -0.019608
v 0.007273 -0.010428 -0.015999
v 0.000000 -0.012726 -0.014308
v 0.006793 -0.007572 -0.012704
v -0.006793 -0.007572 -0.012704
v -0.007273 -0.010428 -0.015999
v -0.006769 -0.011359 -0.019816
v 0.009043 -0.003434 -0.013651
v 0.010077 -0.004021 -0.016307
v 0.009690 -0.005051 -0.020124
v 0.006562 -0.005057 -0.023120
v 0.000000 -0.004037 -0.024944
v 0.009090 0.000000 -0.015748
v 0.008118 0.000000 -0.019391
v 0.005751 0.000000 -0.022156
v 0.000000 0.000000 -0.021809
v 0.006562 -0.005057 0.023120
vt 1.9182 -18.0000
vt 1.9182 -18.0000
vt 1.9182 -18.0000
vt 1.9182 -18.0000
vt 1.9182 -18.0000
vt 1.9182 -18.0000
vt 1.9182 -18.0000
vt 1.9182 -18.0000
vt 1.9182 -18.0000
vt 1.9182 -18.0000
vt 1.9182 -18.0000
vt 1.9182 -18.0000
vt 1.9182 -18.0000
vt 1.9182 -18.0000
vt 1.9182 -18.0000
vt 1.9182 -18.0000
vt 1.9182 -18.0000
vt 1.9182 -18.0000
vt 1.9182 -18.0000
vt 1.9182 -18.0000
vt 1.9182 -18.0000
vt 1.9182 -18.0000
vt 1.9182 -18.0000
vt 1.9182 -18.0000
vt 1.9182 -18.0000
vt 1.9182 -18.0000
vt 1.9182 -18.0000
vt 1.9182 -18.0000
vt 1.9182 -18.0000
vt 1.9182 -18.0000
vt 1.9182 -18.0000
vt 1.9182 -18.0000
vt 1.9182 -18.0000
vt 1.9182 -18.0000
vt 1.9182 -18.0000
vt 1.9182 -18.0000
vt 1.9182 -18.0000
vt 1.9182 -18.0000
vt 1.9182 -18.0000
vt 1.9182 -18.0000
vt 1.9182 -18.0000
vt 1.9182 -18.0000
vt 1.9182 -18.0000
vt 1.9182 -18.0000
vt 1.9182 -18.0000
vt 1.9182 -18.0000
vt 1.9182 -18.0000
vt 1.9182 -18.0000
vt 1.9182 -18.0000
vt 1.9182 -18.0000
vt 1.9182 -18.0000
vt 1.9182 -18.0000
vt 1.9182 -18.0000
vt 1.9182 -18.0000
vt 1.9182 -18.0000
vt 1.9182 -18.0000
vt 1.9182 -18.0000
vt 1.9182 -18.0000
vt 1.9182 -18.0000
vt 1.9182 -18.0000
vt 1.9182 -18.0000
vt 1.9182 -18.0000
vt 1.9182 -18.0000
vt 1.9182 -18.0000
vt 1.9182 -18.0000
vt 1.9182 -18.0000
vt 1.9182 -18.0000
vt 1.9182 -18.0000
vt 1.9182 -18.0000
vt 1.9182 -18.0000
vt 1.9182 -18.0000
vt 1.9182 -18.0000
vt 1.9182 -18.0000
vt 1.9182 -18.0000
vt 1.9182 -18.0000
vt 1.9182 -18.0000
vt 1.9182 -18.0000
vt 1.9182 -18.0000
vt 1.9182 -18.0000
vt 1.9182 -18.0000
vt 1.9182 -18.0000
vt 1.9182 -18.0000
vt 1.9182 -18.0000
vt 1.9182 -18.0000
vt 1.9182 -18.0000
vt 1.9182 -18.0000
vt 1.9182 -18.0000
vt 1.9182 -18.0000
vt 1.9182 -18.0000
vt 1.9182 -18.0000
vt 1.9182 -18.0000
vt 1.9182 -18.0000
vt 1.9182 -18.0000
vt 1.9182 -18.0000
vt 1.9182 -18.0000
vt 1.9182 -18.0000
vt 1.9182 -18.0000
vt 1.9182 -18.0000
vt 1.9182 -18.0000
vt 1.9182 -18.0000
vt 1.9182 -18.0000
vt 1.9182 -18.0000
vt 1.9182 -18.0000
vt 1.9182 -18.0000
vt 1.9182 -18.0000
vt 1.9182 -18.0000
vt 1.9182 -18.0000
vt 1.9182 -18.0000
vt 1.9182 -18.0000
vt 1.9182 -18.0000
vt 1.9182 -18.0000
vt 1.9182 -18.0000
vt 1.9182 -18.0000
vt 1.9182 -18.0000
vt 1.9182 -18.0000
vt 1.9182 -18.0000
vt 1.9182 -18.0000
vt 1.9182 -18.0000
vt 1.9182 -18.0000
vt 1.9182 -18.0000
vt 1.9182 -18.0000
vt 1.9182 -18.0000
vt 1.9182 -18.0000
vt 1.9182 -18.0000
vt 1.9182 -18.0000
vt 1.9182 -18.0000
vt 1.9182 -18.0000
vt 1.9182 -18.0000
vt 1.9182 -18.0000
vt 1.9182 -18.0000
vt 1.9182 -18.0000
vt 1.9182 -18.0000
vt 1.9182 -18.0000
vt 1.9182 -18.0000
vt 1.9182 -18.0000
vt 1.9182 -18.0000
vt 1.9182 -18.0000
vt 1.9182 -18.0000
vt 1.9182 -18.0000
vt 1.9182 -18.0000
vt 1.9182 -18.0000
vt 1.9182 -18.0000
vt 1.9182 -18.0000
vt 1.9182 -18.0000
vt 1.9182 -18.0000
vt 1.9182 -18.0000
vn -0.0000 0.1810 0.9835
vn 0.5484 -0.0116 0.8362
vn 0.5120 0.4341 0.7412
vn 0.9171 -0.0728 0.3920
vn 0.8917 0.0092 0.4526
vn 0.4753 0.0047 0.8798
vn 0.9237 0.0790 0.3749
vn 0.9926 0.0528 -0.1091
vn 0.6616 0.6930 0.2864
vn -0.0000 0.6873 0.7264
vn -0.5120 0.4341 0.7412
vn -0.5484 -0.0116 0.8362
vn 0.0000 -0.2512 0.9679
vn -0.4753 0.0047 0.8798
vn -0.0000 0.2512 0.9679
vn 0.0000 0.0000 1.0000
vn -0.9237 0.0790 0.3749
vn -0.6336 0.7090 0.3098
vn -0.0000 0.9899 0.1419
vn 0.6831 0.6816 -0.2622
vn 0.8424 0.0580 -0.5357
vn -0.6833 0.6816 -0.2618
vn -0.9926 0.0528 -0.1091
vn -0.9073 0.4199 -0.0229
vn -0.8917 0.0092 0.4526
vn -0.9171 -0.0728 0.3920
vn -0.5305 0.0133 0.8476
vn -0.5064 -0.4371 0.7433
vn 0.0000 -0.1810 0.9835
vn 0.0000 -0.6873 0.7264
vn 0.5064 -0.4371 0.7433
vn 0.6571 -0.7092 0.2556
vn 0.9913 -0.0606 -0.1166
vn -0.8513 0.1096 -0.5131
vn -1.0000 -0.0014 0.0096
vn -0.9913 -0.0606 -0.1166
vn -0.6571 -0.7092 0.2556
vn 0.0000 -0.9940 0.1092
vn 0.6862 -0.6788 -0.2615
vn -0.0459 -0.8963 -0.4411
vn -0.6862 -0.6788 -0.2615
vn -0.5877 -0.4646 -0.6624
vn -0.8540 -0.1191 -0.5064
vn -0.8850 -0.0052 -0.4656
vn -0.6782 0.4091 -0.6105
vn -0.5825 0.4421 -0.6821
vn -0.6707 -0.4163 -0.6139
vn -0.8640 0.0128 -0.5033
vn -0.7302 0.6513 -0.2064
vn -0.0046 0.7937 -0.6083
vn -0.0324 0.9657 -0.2575
vn 0.7439 0.6471 -0.1671
vn 0.7740 0.6332 0.0000
vn 0.9878 0.0000 -0.1557
vn 1.0000 0.0000 0.0000
vn 0.7740 -0.6332 0.0000
vn 0.9878 0.0000 0.1557
vn -0.0000 0.8810 -0.4732
vn -0.0000 0.6183 -0.7860
vn 0.7009 0.4087 -0.5845
vn 0.9014 -0.0026 -0.4330
vn 0.7439 -0.6471 -0.1671
vn -0.0324 -0.9657 -0.2575
vn -0.0647 -0.9979 0.0000
vn -0.7453 -0.6667 -0.0000
vn -0.0324 -0.9657 0.2575
vn 0.5825 0.4421 -0.6821
vn 0.8542 -0.0069 -0.5199
vn 0.7021 -0.4073 -0.5841
vn -0.0046 -0.7937 -0.6083
vn -0.7302 -0.6513 -0.2064
vn -0.9831 -0.0000 -0.1829
vn 0.9983 0.0012 -0.0588
vn 0.8439 -0.0673 -0.5323
vn 0.5877 -0.4646 -0.6624
vn 0.0000 -0.6483 -0.7614
vn 0.3639 -0.6968 -0.6181
vn -0.7453 0.6667 -0.0000
vn -0.0647 0.9979 -0.0000
vn -0.0324 0.9657 0.2575
vn -0.7302 0.6513 0.2064
vn -0.9831 -0.0000 0.1829
vn -0.9219 -0.0000 0.3874
vn -0.7302 -0.6513 0.2064
vn -0.7118 -0.3826 0.5891
vn -0.0046 -0.7937 0.6083
vn 0.0000 -0.6309 0.7759
vn -1.0000 -0.0000 -0.0000
vn 0.7439 -0.6471 0.1671
vn 0.7153 -0.3970 0.5752
vn 0.9201 0.0000 0.3916
vn 0.8184 0.0000 0.5746
vn 0.7153 0.3970 0.5752
vn 0.8324 0.0169 0.5539
vn 0.7439 0.6471 0.1671
vn -0.0046 0.7937 0.6083
vn -0.0000 0.6225 0.7826
vn -0.7118 0.3826 0.5891
vn -0.5818 0.4471 0.6794
vn -0.8284 -0.0005 0.5601
vn -0.7916 -0.0000 0.6110
vn -0.9866 -0.0000 0.1629
vn -0.9921 0.0561 0.1119
vn -0.8287 -0.0011 0.5596
vn -0.9919 -0.0581 0.1131
vn -0.8918 -0.0000 -0.4524
vn -0.9168 -0.0719 -0.3928
vn -0.4704 -0.0000 -0.8825
vn -0.9168 0.0719 -0.3928
vn -0.5305 -0.0170 -0.8475
vn 0.0000 -0.2553 -0.9669
vn -0.0000 0.1810 -0.9835
vn 0.5305 -0.0170 -0.8475
vn 0.5064 0.4371 -0.7433
vn 0.9168 0.0719 -0.3928
vn 0.6583 0.7149 -0.2358
vn 0.9921 0.0561 0.1119
vn 0.6776 0.6686 0.3063
vn 0.5818 0.4471 0.6794
vn -0.0000 0.6873 -0.7264
vn -0.5064 0.4371 -0.7433
vn -0.6583 0.7149 -0.2358
vn -0.6776 0.6686 0.3063
vn -0.0000 0.8648 0.5021
vn -0.0000 0.9954 -0.0960
vn 0.5938 -0.8004 -0.0825
vn 0.0000 -0.6873 -0.7264
vn 0.5064 -0.4371 -0.7433
vn 0.0000 -0.1810 -0.9835
vn -0.5064 -0.4371 -0.7433
vn -0.5305 0.0170 -0.8475
vn 0.0000 -0.9965 -0.0837
vn 0.6771 -0.6670 0.3108
vn 0.0000 -0.8644 0.5029
vn 0.5830 -0.4535 0.6741
vn -0.5830 -0.4535 0.6741
vn -0.6771 -0.6670 0.3108
vn -0.6578 -0.7190 -0.2242
vn 0.8327 -0.0185 0.5534
vn 0.9919 -0.0581 0.1131
vn 0.9168 -0.0719 -0.3928
vn 0.7242 -0.3639 -0.5858
vn 0.5305 0.0170 -0.8475
vn -0.0000 0.2553 -0.9669
vn 0.9923 0.0000 0.1241
vn 0.8918 0.0000 -0.4524
vn 0.4704 0.0000 -0.8825
vn 0.0000 0.0000 -1.0000
vn 0.5305 0.0133 0.8476
usemtl notexture
s 1
f 1/1/1 2/2/2 3/3/3
f 4/4/4 5/5/5 6/6/6
f 6/6/6 5/5/5 7/7/7
f 7/7/7 5/5/5 8/8/8
f 7/7/7 8/8/8 9/9/9
f 7/7/7 9/9/9 3/3/3
f 3/3/3 9/9/9 10/10/10
f 3/3/3 10/10/10 1/1/1
f 1/1/1 10/10/10 11/11/11
f 1/1/1 11/11/11 12/12/12
f 1/1/1 12/12/12 13/13/13
f 1/1/1 13/13/13 2/2/2
f 2/2/2 13/13/13 6/6/6
f 2/2/2 6/6/6 7/7/7
f 2/2/2 7/7/7 3/3/3
f 14/14/14 15/15/15 16/16/16
f 16/16/16 15/15/15 6/6/6
f 16/16/16 6/6/6 13/13/13
f 16/16/16 13/13/13 14/14/14
f 14/14/14 13/13/13 12/12/12
f 14/14/14 12/12/12 17/17/17
f 17/17/17 12/12/12 11/11/11
f 17/17/17 11/11/11 18/18/18
f 18/18/18 11/11/11 10/10/10
f 18/18/18 10/10/10 19/19/19
f 19/19/19 10/10/10 9/9/9
f 19/19/19 9/9/9 20/20/20
f 20/20/20 9/9/9 8/8/8
f 20/20/20 8/8/8 21/21/21
f 19/19/19 22/22/22 18/18/18
f 18/18/18 22/22/22 23/23/23
f 18/18/24 23/23/23 17/17/17
f 17/17/17 23/23/23 24/24/25
f 17/17/17 24/24/25 14/14/14
f 14/14/14 24/24/25 25/25/26
f 14/14/14 25/25/26 26/26/27
f 26/26/27 25/25/26 27/27/28
f 26/26/27 27/27/28 28/28/29
f 28/28/29 27/27/28 29/29/30
f 28/28/29 29/29/30 30/30/31
f 30/30/31 29/29/30 31/31/32
f 30/30/31 31/31/32 4/4/4
f 4/4/4 31/31/32 32/32/33
f 33/33/34 34/34/35 23/23/23
f 23/23/23 34/34/35 24/24/25
f 24/24/25 34/34/35 35/35/36
f 24/24/25 35/35/36 25/25/26
f 25/25/26 35/35/36 36/36/37
f 25/25/26 36/36/37 27/27/28
f 27/27/28 36/36/37 29/29/30
f 29/29/30 36/36/37 37/37/38
f 29/29/30 37/37/38 31/31/32
f 32/32/33 31/31/32 38/38/39
f 38/38/39 31/31/32 37/37/38
f 38/38/39 37/37/38 39/39/40
f 39/39/40 37/37/38 40/40/41
f 39/39/40 40/40/41 41/41/42
f 41/41/42 40/40/41 42/42/43
f 42/42/43 40/40/41 35/35/36
f 42/42/43 35/35/36 34/34/35
f 42/42/43 34/34/35 43/43/44
f 43/43/44 34/34/35 33/33/34
f 43/43/44 33/33/34 44/44/45
f 44/44/45 33/33/34 45/45/46
f 45/45/46 33/33/34 22/22/22
f 22/22/22 33/33/34 23/23/23
f 37/37/38 36/36/37 40/40/41
f 40/40/41 36/36/37 35/35/36
f 41/41/42 42/42/43 46/46/47
f 46/46/47 42/42/43 43/43/44
f 46/46/47 43/43/44 47/47/48
f 47/47/48 43/43/44 44/44/45
f 47/47/48 44/44/45 48/48/49
f 48/48/49 44/44/45 49/49/50
f 48/48/49 49/49/50 50/50/51
f 50/50/51 49/49/50 51/51/52
f 50/50/51 51/51/52 52/52/53
f 52/52/53 51/51/52 53/53/54
f 52/52/53 53/53/54 54/54/55
f 54/54/55 53/53/54 55/55/56
f 54/54/55 55/55/56 56/56/57
f 54/54/55 56/56/57 52/52/53
f 22/22/22 57/57/58 45/45/46
f 45/45/46 57/57/58 58/58/59
f 45/45/46 58/58/59 44/44/45
f 44/44/45 58/58/59 49/49/50
f 49/49/50 58/58/59 59/59/60
f 49/49/50 59/59/60 51/51/52
f 51/51/52 59/59/60 60/60/61
f 51/51/52 60/60/61 53/53/54
f 53/53/54 60/60/61 61/61/62
f 53/53/54 61/61/62 55/55/56
f 55/55/56 61/61/62 62/62/63
f 55/55/56 62/62/63 63/63/64
f 63/63/64 62/62/63 64/64/65
f 63/63/64 64/64/65 65/65/66
f 22/22/22 19/19/19 57/57/58
f 57/57/58 19/19/19 20/20/20
f 57/57/58 20/20/20 66/66/67
f 66/66/67 20/20/20 21/21/21
f 66/66/67 21/21/21 59/59/60
f 59/59/60 21/21/21 67/67/68
f 59/59/60 67/67/68 60/60/61
f 60/60/61 67/67/68 68/68/69
f 60/60/61 68/68/69 61/61/62
f 61/61/62 68/68/69 69/69/70
f 61/61/62 69/69/70 62/62/63
f 62/62/63 69/69/70 70/70/71
f 62/62/63 70/70/71 64/64/65
f 64/64/65 70/70/71 71/71/72
f 4/4/4 32/32/33 5/5/5
f 5/5/5 32/32/33 72/72/73
f 5/5/5 72/72/73 8/8/8
f 8/8/8 72/72/73 21/21/21
f 21/21/21 72/72/73 67/67/68
f 67/67/68 72/72/73 73/73/74
f 67/67/68 73/73/74 68/68/69
f 68/68/69 73/73/74 74/74/75
f 68/68/69 74/74/75 75/75/76
f 68/68/69 75/75/76 69/69/70
f 69/69/70 75/75/76 46/46/47
f 69/69/70 46/46/47 70/70/71
f 70/70/71 46/46/47 47/47/48
f 70/70/71 47/47/48 71/71/72
f 46/46/47 75/75/76 41/41/42
f 41/41/42 75/75/76 39/39/40
f 39/39/40 75/75/76 74/74/75
f 39/39/77 74/74/75 38/38/39
f 38/38/39 74/74/75 73/73/74
f 38/38/39 73/73/74 32/32/33
f 32/32/33 73/73/74 72/72/73
f 47/47/48 48/48/49 71/71/72
f 71/71/72 48/48/49 76/76/78
f 76/76/78 48/48/49 50/50/51
f 76/76/78 50/50/51 77/77/79
f 77/77/79 50/50/51 52/52/53
f 77/77/79 52/52/53 78/78/80
f 77/77/79 78/78/80 76/76/78
f 76/76/78 78/78/80 79/79/81
f 76/76/78 79/79/81 80/80/82
f 80/80/82 79/79/81 81/81/83
f 80/80/82 81/81/83 82/82/84
f 82/82/84 81/81/83 83/83/85
f 82/82/84 83/83/85 84/84/86
f 84/84/86 83/83/85 85/85/87
f 64/64/65 71/71/72 86/86/88
f 86/86/88 71/71/72 76/76/78
f 86/86/88 76/76/78 80/80/82
f 86/86/88 80/80/82 64/64/65
f 64/64/65 80/80/82 82/82/84
f 64/64/65 82/82/84 65/65/66
f 65/65/66 82/82/84 84/84/86
f 65/65/66 84/84/86 87/87/89
f 87/87/89 84/84/86 88/88/90
f 87/87/89 88/88/90 89/89/91
f 89/89/91 88/88/90 90/90/92
f 89/89/91 90/90/92 91/91/93
f 91/91/93 90/90/92 92/92/94
f 63/63/64 65/65/66 55/55/56
f 55/55/56 65/65/66 87/87/89
f 55/55/56 87/87/89 56/56/57
f 56/56/57 87/87/89 89/89/91
f 56/56/57 89/89/91 93/93/95
f 93/93/95 89/89/91 91/91/93
f 93/93/95 91/91/93 94/94/96
f 94/94/96 91/91/93 95/95/97
f 94/94/96 95/95/97 96/96/98
f 96/96/98 95/95/97 97/97/99
f 96/96/98 97/97/99 98/98/100
f 96/96/98 98/98/100 99/99/101
f 99/99/101 98/98/100 100/100/102
f 100/100/102 98/98/100 101/101/103
f 52/52/53 56/56/57 93/93/95
f 52/52/53 93/93/95 78/78/80
f 78/78/80 93/93/95 94/94/96
f 78/78/80 94/94/96 79/79/81
f 79/79/81 94/94/96 96/96/98
f 79/79/81 96/96/98 81/81/83
f 81/81/83 96/96/98 99/99/101
f 81/81/83 99/99/101 83/83/85
f 83/83/85 99/99/101 102/102/104
f 102/102/104 99/99/101 100/100/102
f 102/102/104 100/100/102 103/103/105
f 103/103/105 100/100/102 104/104/106
f 103/103/105 104/104/106 105/105/107
f 105/105/107 104/104/106 106/106/108
f 100/100/102 101/101/103 104/104/106
f 104/104/106 101/101/103 107/107/109
f 104/104/106 107/107/109 106/106/108
f 106/106/108 107/107/109 108/108/110
f 106/106/108 108/108/110 109/109/111
f 109/109/111 108/108/110 110/110/112
f 109/109/111 110/110/112 111/111/113
f 111/111/113 110/110/112 112/112/114
f 111/111/113 112/112/114 113/113/115
f 113/113/115 112/112/114 114/114/116
f 113/113/115 114/114/116 115/115/117
f 115/115/117 114/114/116 116/116/118
f 115/115/117 116/116/118 92/92/94
f 92/92/94 116/116/118 117/117/119
f 118/118/120 112/112/114 110/110/112
f 118/118/120 110/110/112 119/119/121
f 119/119/121 110/110/112 108/108/110
f 119/119/121 108/108/110 107/107/109
f 119/119/121 107/107/109 120/120/122
f 120/120/122 107/107/109 101/101/103
f 120/120/122 101/101/103 121/121/123
f 121/121/123 101/101/103 98/98/100
f 121/121/123 98/98/100 97/97/99
f 121/121/123 97/97/99 122/122/124
f 122/122/124 97/97/99 95/95/97
f 122/122/124 95/95/97 117/117/119
f 117/117/119 95/95/97 91/91/93
f 117/117/119 91/91/93 92/92/94
f 119/119/121 120/120/122 118/118/120
f 118/118/120 120/120/122 123/123/125
f 123/123/125 120/120/122 121/121/123
f 123/123/125 121/121/123 122/122/124
f 122/122/124 117/117/119 116/116/118
f 122/122/124 116/116/118 123/123/125
f 123/123/125 116/116/118 114/114/116
f 123/123/125 114/114/116 118/118/120
f 118/118/120 114/114/116 112/112/114
f 59/59/60 58/58/59 66/66/67
f 66/66/67 58/58/59 57/57/58
f 124/124/126 125/125/127 126/126/128
f 126/126/128 125/125/127 127/127/129
f 127/127/129 125/125/127 128/128/130
f 127/127/129 128/128/130 129/129/131
f 125/125/127 124/124/126 130/130/132
f 130/130/132 124/124/126 131/131/133
f 130/130/132 131/131/133 132/132/134
f 132/132/134 131/131/133 133/133/135
f 132/132/134 133/133/135 85/85/87
f 132/132/134 85/85/87 134/134/136
f 134/134/136 85/85/87 83/83/85
f 134/134/136 83/83/85 102/102/104
f 134/134/136 102/102/104 135/135/137
f 135/135/137 102/102/104 103/103/105
f 135/135/137 103/103/105 136/136/138
f 136/136/138 103/103/105 105/105/107
f 136/136/138 105/105/107 128/128/130
f 128/128/130 105/105/107 129/129/131
f 128/128/130 125/125/127 136/136/138
f 136/136/138 125/125/127 130/130/132
f 136/136/138 130/130/132 135/135/137
f 135/135/137 130/130/132 132/132/134
f 135/135/137 132/132/134 134/134/136
f 84/84/86 85/85/87 88/88/90
f 88/88/90 85/85/87 133/133/135
f 88/88/90 133/133/135 137/137/139
f 137/137/139 133/133/135 131/131/133
f 137/137/139 131/131/133 138/138/140
f 138/138/140 131/131/133 124/124/126
f 138/138/140 124/124/126 139/139/141
f 139/139/141 124/124/142 126/126/128
f 139/139/141 126/126/128 140/140/143
f 140/140/143 126/126/128 127/127/129
f 140/140/143 127/127/129 141/141/144
f 141/141/144 127/127/129 129/129/131
f 141/141/144 129/129/131 106/106/108
f 106/106/108 129/129/131 105/105/107
f 142/142/145 137/137/139 138/138/140
f 142/142/145 138/138/140 143/143/146
f 143/143/146 138/138/140 139/139/141
f 143/143/146 139/139/141 144/144/147
f 144/144/147 139/139/141 140/140/143
f 144/144/147 140/140/143 141/141/144
f 144/144/147 141/141/144 145/145/148
f 145/145/148 141/141/144 106/106/108
f 145/145/148 106/106/108 109/109/111
f 145/145/148 109/109/111 144/144/147
f 144/144/147 109/109/111 111/111/113
f 144/144/147 111/111/113 113/113/115
f 144/144/147 113/113/115 143/143/146
f 143/143/146 113/113/115 115/115/117
f 143/143/146 115/115/117 142/142/145
f 142/142/145 115/115/117 92/92/94
f 142/142/145 92/92/94 90/90/92
f 142/142/145 90/90/92 137/137/139
f 137/137/139 90/90/92 88/88/90
f 14/14/14 26/26/27 15/15/15
f 15/15/15 26/26/27 28/28/29
f 15/15/15 28/28/29 146/146/149
f 146/146/149 28/28/29 30/30/31
f 146/146/149 30/30/31 4/4/4
f 146/146/149 4/4/4 6/6/6
f 146/146/149 6/6/6 15/15/15
